<?xml version="1.0" standalone="no"?>
<!DOCTYPE svg PUBLIC "-//W3C//DTD SVG 20010904//EN"
 "http://www.w3.org/TR/2001/REC-SVG-20010904/DTD/svg10.dtd">
<svg version="1.0" xmlns="http://www.w3.org/2000/svg"
 width="512.000000pt" height="512.000000pt" viewBox="0 0 512.000000 512.000000"
 preserveAspectRatio="xMidYMid meet">

<g transform="translate(0.000000,512.000000) scale(0.100000,-0.100000)"
fill="#000000" stroke="none">
<path d="M2299 5047 c-99 -28 -183 -98 -221 -183 -25 -57 -41 -235 -33 -354
12 -168 54 -289 130 -380 32 -38 36 -48 30 -79 -3 -20 -14 -47 -24 -61 l-18
-25 -749 -5 c-846 -6 -787 0 -864 -87 -83 -95 -75 -221 20 -306 37 -33 64 -48
101 -56 31 -7 210 -11 477 -11 392 0 430 -2 467 -19 60 -27 101 -66 129 -123
l26 -52 0 -1515 c0 -875 4 -1533 10 -1555 14 -63 59 -118 119 -148 73 -37 131
-37 202 0 66 34 105 88 119 161 6 32 10 269 10 581 l0 527 -64 124 c-102 198
-146 375 -146 584 0 327 121 630 345 864 171 178 382 299 630 361 35 8 42 16
59 56 21 51 69 104 119 131 29 16 77 18 497 23 l466 5 49 25 c162 83 162 317
0 400 l-49 25 -748 3 -748 2 -17 26 c-9 14 -19 42 -23 62 -5 32 -1 43 33 86
83 106 115 212 124 401 13 289 -40 417 -200 490 -70 32 -187 42 -258 22z"/>
<path d="M999 4541 c-24 -19 -24 -22 -24 -204 0 -168 2 -187 19 -206 24 -26
60 -27 86 -1 18 18 20 33 20 160 l0 140 140 0 c127 0 142 2 160 20 28 28 25
64 -6 89 -25 19 -40 21 -199 21 -155 0 -175 -2 -196 -19z"/>
<path d="M3405 4535 c-14 -13 -25 -31 -25 -40 0 -9 11 -27 25 -40 23 -24 29
-25 159 -25 l134 0 4 -139 c3 -120 6 -142 22 -160 24 -26 60 -27 86 -1 19 19
20 33 20 200 0 244 14 230 -225 230 -173 0 -176 0 -200 -25z"/>
<path d="M3156 3189 c-404 -43 -759 -302 -918 -671 -182 -421 -96 -899 221
-1231 228 -239 524 -358 860 -344 180 7 296 37 456 117 373 186 603 543 622
960 23 530 -332 1009 -844 1139 -71 18 -261 43 -302 40 -9 -1 -52 -5 -95 -10z
m329 -277 c316 -86 548 -316 631 -627 29 -108 27 -342 -5 -452 -115 -408 -513
-678 -931 -632 -360 39 -650 288 -752 644 -19 68 -23 103 -22 225 1 127 4 156
27 233 101 332 352 558 690 623 95 18 270 11 362 -14z"/>
<path d="M3717 2489 c-9 -6 -155 -164 -324 -352 -168 -188 -308 -341 -310
-341 -3 1 -63 56 -134 123 -76 71 -137 121 -149 121 -41 0 -76 -63 -52 -95 4
-6 75 -76 158 -158 125 -121 157 -147 181 -147 25 0 69 46 368 380 243 272
341 389 343 408 5 47 -42 83 -81 61z"/>
<path d="M999 2131 c-24 -19 -24 -22 -24 -206 0 -242 -17 -225 226 -225 166 0
180 1 199 20 28 28 25 64 -6 89 -24 19 -40 21 -160 21 l-134 0 0 135 c0 131
-1 137 -25 160 -29 30 -45 31 -76 6z"/>
<path d="M3953 1017 c-45 -29 -82 -55 -82 -58 -1 -3 20 -38 45 -78 45 -69 46
-73 29 -91 -17 -19 -10 -31 201 -356 198 -306 222 -338 259 -355 22 -10 53
-19 68 -19 99 -1 176 105 144 198 -19 55 -428 684 -441 678 -6 -2 -18 -7 -26
-10 -10 -4 -27 14 -55 60 -22 36 -45 69 -50 74 -6 5 -43 -12 -92 -43z"/>
<path d="M2580 627 c0 -443 0 -439 78 -509 90 -81 214 -77 302 12 27 27 50 61
58 86 8 28 12 132 12 330 l0 290 -72 18 c-98 25 -230 78 -311 126 l-67 39 0
-392z"/>
</g>
</svg>
