<?xml version="1.0" standalone="no"?>
<!DOCTYPE svg PUBLIC "-//W3C//DTD SVG 20010904//EN"
 "http://www.w3.org/TR/2001/REC-SVG-20010904/DTD/svg10.dtd">
<svg version="1.0" xmlns="http://www.w3.org/2000/svg"
 width="512.000000pt" height="512.000000pt" viewBox="0 0 512.000000 512.000000"
 preserveAspectRatio="xMidYMid meet">

<g transform="translate(0.000000,512.000000) scale(0.100000,-0.100000)"
fill="#000000" stroke="none">
<path d="M2735 5046 c-201 -49 -338 -233 -322 -436 20 -269 283 -449 539 -370
156 48 263 171 290 334 48 288 -224 541 -507 472z"/>
<path d="M2400 4079 c-120 -20 -224 -95 -299 -214 -49 -77 -59 -100 -131 -305
-32 -91 -61 -173 -65 -182 -6 -15 -48 3 -303 134 -277 142 -299 151 -351 151
-83 0 -144 -40 -186 -122 -25 -50 -17 -137 17 -189 32 -47 39 -51 516 -293
334 -169 366 -183 415 -183 66 0 128 31 161 80 14 20 46 97 72 171 26 73 49
132 51 129 2 -2 -28 -171 -67 -376 -38 -206 -69 -375 -67 -376 2 -2 97 68 213
156 115 88 225 168 244 177 26 13 59 18 125 18 81 0 95 -3 138 -28 26 -15 52
-25 57 -22 5 3 49 40 97 82 113 97 173 125 279 131 l80 4 -23 126 c-13 69 -22
127 -20 128 2 2 24 -54 49 -124 l45 -127 256 -3 255 -2 -63 62 -63 63 -100
285 c-119 338 -129 363 -188 452 -75 113 -178 180 -301 198 -84 12 -768 11
-843 -1z"/>
<path d="M553 3316 c-107 -35 -204 -120 -256 -225 -30 -62 -32 -71 -32 -181 0
-111 1 -118 34 -182 42 -85 119 -159 208 -201 63 -30 76 -32 174 -32 101 0
108 1 180 37 93 46 158 112 202 206 30 62 32 75 32 172 0 97 -2 110 -32 173
-43 90 -119 169 -202 209 -59 29 -77 32 -166 35 -65 2 -115 -2 -142 -11z"/>
<path d="M3249 2896 c-44 -15 -54 -22 -162 -116 -48 -41 -85 -80 -83 -86 46
-120 22 -235 -66 -321 -55 -52 -671 -521 -718 -546 -26 -14 -51 -17 -96 -15
-59 4 -72 10 -268 128 -113 68 -205 125 -203 127 2 1 98 -31 213 -72 213 -76
270 -87 329 -65 21 8 558 410 667 499 82 67 92 198 20 275 -53 57 -133 79
-201 55 -18 -6 -158 -107 -311 -224 l-279 -212 -160 56 c-88 31 -157 57 -153
58 4 2 64 -5 134 -15 124 -18 127 -18 153 1 l26 20 -274 182 c-293 195 -328
212 -414 196 -22 -4 -62 -20 -88 -35 -41 -25 -67 -58 -215 -282 -185 -280
-199 -311 -179 -403 21 -98 30 -105 597 -481 l527 -350 1350 3 c1500 2 1373
-4 1443 69 40 40 67 124 57 176 -11 61 -51 119 -103 149 l-47 28 -1115 5
-1114 5 364 320 c200 176 398 350 439 387 l76 68 476 0 476 0 44 23 c53 28
103 98 113 156 9 61 -11 124 -56 176 -66 75 -65 75 -652 75 -389 -1 -520 -4
-547 -14z"/>
<path d="M4181 2360 c-115 -5 -122 -6 -105 -21 36 -32 84 -49 134 -49 60 0
106 18 139 54 l24 26 -34 -2 c-19 -1 -90 -5 -158 -8z"/>
<path d="M3128 2102 c-163 -141 -300 -260 -304 -264 -4 -5 175 -8 398 -8 l405
0 -51 263 -51 262 -50 2 -50 2 -297 -257z"/>
<path d="M123 2151 c-78 -49 -96 -151 -38 -219 13 -16 282 -192 598 -393 l575
-364 -557 -5 c-610 -5 -582 -3 -643 -67 -130 -137 -26 -343 174 -343 l38 0 0
-257 c0 -158 4 -273 11 -298 15 -55 82 -120 138 -135 92 -25 188 18 233 102
21 41 23 56 26 316 l4 272 1878 0 1878 0 4 -272 c3 -260 5 -275 26 -316 45
-84 141 -127 233 -102 56 15 123 80 138 135 7 25 11 140 11 298 l0 257 38 0
c167 0 276 147 213 285 -23 51 -79 101 -128 114 -26 8 -538 11 -1590 11
l-1552 0 -783 497 c-764 486 -784 498 -838 501 -41 2 -63 -2 -87 -17z"/>
<path d="M2290 459 c0 -113 5 -197 12 -223 16 -55 99 -138 154 -154 118 -35
238 15 287 120 23 49 26 69 32 246 l6 192 -246 0 -245 0 0 -181z"/>
<path d="M2880 459 c0 -207 7 -241 61 -303 110 -125 301 -109 385 32 37 62 44
106 44 305 l0 147 -245 0 -245 0 0 -181z"/>
</g>
</svg>
