<svg width="27" height="27" viewBox="0 0 27 27" fill="none" xmlns="http://www.w3.org/2000/svg">
<path d="M14.2909 3.05305C13.8743 3.18489 13.4894 3.54876 13.3944 3.8968C13.3312 4.11301 12.498 11.9968 12.498 12.3449C12.498 12.7456 12.8776 13.3521 13.1888 13.4575C13.2415 13.4734 13.1888 14.1167 12.9409 16.5109L12.6245 19.5378L12.0392 19.522C11.4644 19.5009 11.4433 19.5062 11.3114 19.638C11.148 19.8015 11.1427 20.0072 11.3062 20.1654C11.4064 20.2708 11.5013 20.2972 11.8968 20.3288C13.9112 20.4765 15.5618 20.6716 17.4655 20.988C19.0528 21.2517 20.946 21.6208 21.0093 21.6788C21.0409 21.7052 20.9987 22.0743 20.9144 22.5911C20.7614 23.5245 20.7667 23.5984 21.0093 23.7566C21.1675 23.862 21.389 23.8146 21.4892 23.6564C21.5314 23.5984 21.6263 23.1659 21.7054 22.7019C21.7845 22.2378 21.853 21.8529 21.8583 21.8476C21.8741 21.8107 24.8325 22.5542 26.114 22.9181C26.5411 23.0394 26.6519 23.0499 26.7626 23.0025C27.0368 22.8759 27.0685 22.4909 26.8153 22.3275C26.6255 22.2062 24.2841 21.5734 22.5069 21.1673C22.2802 21.1146 22.0745 21.0618 22.0429 21.0407C22.0112 21.0197 22.1114 20.2972 22.3224 19.0632C22.6441 17.1542 22.6546 17.1173 22.7812 17.0857C23.1503 16.9855 23.4773 16.7113 23.6302 16.3738C23.7304 16.147 24.3105 12.8142 24.3105 12.4609C24.3105 12.2077 24.1892 12.0759 23.9571 12.0759C23.6038 12.0759 23.5985 12.0865 23.2558 14.1062C23.0817 15.1187 22.9183 16.0046 22.8919 16.0679C22.8181 16.2314 22.5439 16.3632 22.354 16.321C22.1483 16.2736 21.9901 16.0626 21.9901 15.8306C21.9901 15.5775 23.3032 7.80969 23.3665 7.69368C23.4931 7.4511 23.8622 7.35618 24.0837 7.51438C24.3157 7.67786 24.3157 7.85188 24.0679 9.28626C23.7884 10.8894 23.7831 11.0265 23.973 11.1741C24.1523 11.3165 24.2735 11.3113 24.4423 11.1636C24.5741 11.0529 24.6005 10.9474 24.8483 9.49192C25.0804 8.11028 25.1067 7.90462 25.0593 7.65676C24.8747 6.73919 23.7726 6.31204 23.029 6.87102C22.5966 7.19798 22.5966 7.19798 21.853 11.5749C21.4892 13.7476 21.1833 15.6724 21.1833 15.8464C21.178 16.2788 21.4206 16.7271 21.7581 16.9169C21.8583 16.9697 21.853 17.0171 21.5472 18.8259C21.3784 19.8437 21.2308 20.7243 21.2149 20.7718C21.1939 20.8615 21.1411 20.8562 20.445 20.7138C18.4728 20.313 15.9257 19.907 14.3331 19.7435C13.6107 19.6644 13.4472 19.6327 13.4472 19.5695C13.4419 19.522 13.579 18.1615 13.7478 16.5425L14.0483 13.5999L14.3384 13.4575C14.6653 13.2993 14.9448 12.9724 15.0239 12.6665C15.0503 12.5611 15.2665 10.6204 15.5038 8.35813C15.9732 3.83352 15.9679 3.96536 15.6567 3.53821C15.4458 3.2429 15.0978 3.05305 14.7286 3.02669C14.5599 3.01614 14.3648 3.02669 14.2909 3.05305ZM14.9659 3.9759C15.0661 4.07083 15.0925 4.1552 15.0925 4.35559C15.0872 4.62454 14.312 12.155 14.2593 12.3976C14.2013 12.6982 13.8532 12.8616 13.5737 12.7298C13.2468 12.5716 13.2415 12.7351 13.7056 8.28958C13.9376 6.05364 14.1538 4.16575 14.1855 4.08665C14.2487 3.92317 14.5282 3.78606 14.7128 3.82825C14.7866 3.84407 14.9026 3.91262 14.9659 3.9759Z" fill="#BB7154"/>
<path d="M0.906988 3.72282C0.47984 3.93376 0.210895 4.3609 0.210895 4.81442C0.210895 5.18356 1.57144 13.1675 1.66636 13.3574C1.82984 13.6843 2.25699 14.0271 2.49957 14.0271C2.54175 14.0271 2.59449 14.0535 2.61031 14.0798C2.6314 14.1115 2.87925 15.509 3.15875 17.1859L3.67554 20.2339L3.19566 20.408C2.08296 20.8088 1.023 21.4521 0.379645 22.1166C-0.0422303 22.5543 -0.0896913 22.6966 0.131793 22.9129C0.337457 23.1238 0.490387 23.0869 0.885895 22.7125C2.28336 21.4047 4.21871 20.6822 7.13492 20.3869C7.47242 20.35 7.76773 20.3341 7.77828 20.35C7.7941 20.3605 7.80464 21.1463 7.80464 22.0955V23.8199L7.92593 23.9306C8.08941 24.0836 8.30562 24.0783 8.46382 23.9148L8.59566 23.7882V22.0533V20.3183L8.75914 20.2814C8.84879 20.2656 9.11246 20.2498 9.34449 20.2498C9.7189 20.2498 9.77164 20.2392 9.8982 20.1127C10.0037 20.0072 10.0248 19.9492 9.99839 19.8121C9.94039 19.5115 9.81382 19.4588 9.17046 19.4588H8.59566V18.325V17.1912L8.72222 17.1384C8.91734 17.0646 9.2232 16.7746 9.34976 16.5373L9.46578 16.3211V11.9441V7.56715L9.34976 7.35094C9.20211 7.07672 8.84879 6.76559 8.60093 6.69704C7.94175 6.51247 7.2773 6.81305 7.00836 7.40895C6.91343 7.60934 6.90816 7.86774 6.90816 11.9441C6.90816 16.0416 6.91343 16.2789 7.00836 16.4845C7.12437 16.7377 7.43023 17.0488 7.64644 17.1384L7.80464 17.2017V18.3566V19.5062L7.58316 19.5326C7.4566 19.5484 7.20347 19.5748 7.01363 19.5906C6.49683 19.6381 5.68472 19.7593 5.04664 19.8859C4.7355 19.9492 4.47183 19.9914 4.46129 19.9808C4.45074 19.9703 4.21343 18.615 3.93394 16.9697L3.43296 13.9744L3.70718 13.7002C3.99722 13.4048 4.11324 13.1517 4.11324 12.7879C4.11324 12.6824 3.80738 10.7681 3.42769 8.54274C2.94781 5.67926 2.71578 4.42946 2.64195 4.28708C2.30972 3.64372 1.55562 3.40114 0.906988 3.72282ZM1.77183 4.45583C1.83511 4.49801 1.90894 4.59821 1.94058 4.67731C1.97222 4.75641 2.29918 6.62321 2.66832 8.82223C3.39605 13.1992 3.3855 13.041 3.05328 13.2097C2.83707 13.3257 2.7105 13.3047 2.52593 13.1412L2.36246 12.9988L1.68218 8.96461C1.30777 6.7445 1.00191 4.8777 1.00191 4.80914C1.00191 4.74059 1.07046 4.61403 1.15484 4.52965C1.32886 4.35563 1.58726 4.32399 1.77183 4.45583ZM8.46382 7.51969C8.53238 7.56188 8.61148 7.67262 8.64312 7.76227C8.72222 7.98903 8.72222 15.8992 8.64312 16.1259C8.52183 16.474 8.11578 16.5636 7.85211 16.3L7.69918 16.147V11.9441V7.74118L7.85211 7.58825C8.0314 7.41422 8.26343 7.38786 8.46382 7.51969Z" fill="#BB7154"/>
</svg>
