<svg width="20" height="20" viewBox="0 0 20 20" fill="none" xmlns="http://www.w3.org/2000/svg">
<path d="M13.3333 1.6665V4.99984M6.66667 1.6665V4.99984M2.5 8.33317H17.5M10.8333 3.33317H9.16667C6.02417 3.33317 4.4525 3.33317 3.47667 4.30984C2.50083 5.2865 2.5 6.85734 2.5 9.99984V11.6665C2.5 14.809 2.5 16.3807 3.47667 17.3565C4.45333 18.3323 6.02417 18.3332 9.16667 18.3332H10.8333C13.9758 18.3332 15.5475 18.3332 16.5233 17.3565C17.4992 16.3798 17.5 14.809 17.5 11.6665V9.99984C17.5 6.85734 17.5 5.28567 16.5233 4.30984C15.5467 3.334 13.9758 3.33317 10.8333 3.33317Z" stroke="#BB7154" stroke-width="1.25" stroke-linecap="round" stroke-linejoin="round"/>
<path d="M7.5 13.75C7.5 13.75 8.75 14.1667 9.16667 15.4167C9.16667 15.4167 10.9808 12.0833 13.3333 11.25" stroke="#BB7154" stroke-width="1.25" stroke-linecap="round" stroke-linejoin="round"/>
</svg>
