<svg width="27" height="27" viewBox="0 0 27 27" fill="none" xmlns="http://www.w3.org/2000/svg">
<path d="M10.6433 4.47205C10.2024 4.59676 9.82827 4.90852 9.65903 5.2871C9.54768 5.54096 9.47642 6.33374 9.51205 6.86375C9.5655 7.61199 9.75256 8.1509 10.091 8.5562C10.2336 8.72544 10.2514 8.76998 10.2247 8.90805C10.2113 8.99713 10.1623 9.11738 10.1178 9.17974L10.0376 9.29108L6.70169 9.31335C2.93376 9.34007 3.19654 9.31335 2.85359 9.70083C2.48392 10.1239 2.51955 10.6851 2.94267 11.0637C3.10746 11.2107 3.22771 11.2775 3.3925 11.3131C3.53057 11.3443 4.32781 11.3621 5.51698 11.3621C7.26287 11.3621 7.43212 11.371 7.59691 11.4467C7.86414 11.567 8.04674 11.7407 8.17145 11.9945L8.28725 12.2261V18.9737C8.28725 22.8708 8.30507 25.8014 8.33179 25.8994C8.39414 26.18 8.59456 26.4249 8.86179 26.5585C9.18692 26.7233 9.44524 26.7233 9.76147 26.5585C10.0554 26.4071 10.2291 26.1666 10.2915 25.8415C10.3182 25.6989 10.336 24.6434 10.336 23.2538V20.9066L10.051 20.3544C9.59667 19.4725 9.40071 18.6842 9.40071 17.7533C9.40071 16.2969 9.93962 14.9474 10.9373 13.9052C11.6989 13.1125 12.6386 12.5735 13.7432 12.2974C13.8991 12.2618 13.9302 12.2261 14.006 12.048C14.0995 11.8208 14.3133 11.5848 14.536 11.4645C14.6651 11.3933 14.8789 11.3844 16.7495 11.3621L18.825 11.3398L19.0432 11.2285C19.7647 10.8588 19.7647 9.81663 19.0432 9.44696L18.825 9.33562L15.4935 9.32226L12.1621 9.31335L12.0864 9.19755C12.0463 9.1352 12.0017 9.01049 11.9839 8.92141C11.9617 8.77889 11.9795 8.7299 12.1309 8.53839C12.5006 8.06628 12.6431 7.59418 12.6832 6.7524C12.7411 5.46525 12.505 4.89516 11.7924 4.57003C11.4806 4.42751 10.9595 4.38297 10.6433 4.47205Z" fill="#BB7154"/>
<path d="M4.85329 6.72594C4.7464 6.81056 4.7464 6.82392 4.7464 7.63452C4.7464 8.38276 4.75531 8.46738 4.83102 8.552C4.93791 8.6678 5.09825 8.67226 5.21405 8.55646C5.29422 8.47629 5.30313 8.40948 5.30313 7.84385V7.22031H5.92666C6.4923 7.22031 6.5591 7.21141 6.63927 7.13124C6.76398 7.00653 6.75062 6.84619 6.61255 6.73485C6.5012 6.65022 6.4344 6.64132 5.72624 6.64132C5.0359 6.64132 4.94682 6.65022 4.85329 6.72594Z" fill="#BB7154"/>
<path d="M15.5692 6.75266C15.5068 6.81056 15.4578 6.89073 15.4578 6.93081C15.4578 6.9709 15.5068 7.05107 15.5692 7.10897C15.6716 7.21586 15.6983 7.22031 16.2773 7.22031H16.8741L16.892 7.83939C16.9053 8.37385 16.9187 8.47184 16.9899 8.552C17.0968 8.6678 17.2572 8.67226 17.373 8.55646C17.4576 8.47184 17.462 8.40948 17.462 7.66569C17.462 6.57896 17.5244 6.64132 16.4599 6.64132C15.6894 6.64132 15.6761 6.64132 15.5692 6.75266Z" fill="#BB7154"/>
<path d="M14.4603 12.7477C12.661 12.9392 11.0799 14.0927 10.3717 15.7362C9.5611 17.6112 9.94413 19.7401 11.356 21.2188C12.3715 22.2833 13.6898 22.8133 15.1863 22.7509C15.988 22.7198 16.5046 22.5861 17.2172 22.2298C18.8785 21.4014 19.9029 19.8114 19.9875 17.9542C20.0899 15.5936 18.5088 13.4603 16.2285 12.8813C15.9122 12.8011 15.066 12.6898 14.8834 12.7031C14.8433 12.7076 14.6518 12.7254 14.4603 12.7477ZM15.9256 13.9814C17.333 14.3644 18.3663 15.3888 18.736 16.7739C18.8651 17.2549 18.8562 18.2971 18.7137 18.787C18.2015 20.6042 16.4289 21.8067 14.5672 21.6018C12.9638 21.4281 11.6722 20.3191 11.2179 18.7336C11.1333 18.4307 11.1155 18.2748 11.1199 17.7315C11.1244 17.1658 11.1378 17.0367 11.2402 16.6937C11.69 15.2151 12.8079 14.2085 14.3133 13.919C14.7364 13.8388 15.5159 13.87 15.9256 13.9814Z" fill="#BB7154"/>
<path d="M16.9588 15.8652C16.9188 15.8919 16.2685 16.5956 15.5158 17.4329C14.7676 18.2703 14.144 18.9517 14.1351 18.9517C14.1218 18.9472 13.8545 18.7023 13.5383 18.4039C13.1998 18.0876 12.9281 17.865 12.8747 17.865C12.6921 17.865 12.5362 18.1455 12.6431 18.2881C12.6609 18.3148 12.9771 18.6266 13.3468 18.9918C13.9035 19.5307 14.046 19.6465 14.1529 19.6465C14.2643 19.6465 14.4602 19.4416 15.7919 17.954C16.8742 16.7426 17.3107 16.2215 17.3196 16.1369C17.3419 15.9275 17.1325 15.7672 16.9588 15.8652Z" fill="#BB7154"/>
<path d="M4.85333 17.4596C4.74644 17.5442 4.74644 17.5576 4.74644 18.3771C4.74644 19.4549 4.67073 19.3792 5.753 19.3792C6.49234 19.3792 6.55469 19.3748 6.63931 19.2901C6.76402 19.1654 6.75066 19.0051 6.61259 18.8938C6.5057 18.8091 6.43444 18.8002 5.89998 18.8002H5.30317V18.199C5.30317 17.6155 5.29871 17.5888 5.19182 17.4863C5.06266 17.3527 4.9914 17.3483 4.85333 17.4596Z" fill="#BB7154"/>
<path d="M18.0099 22.4213C17.8095 22.5504 17.6447 22.6662 17.6447 22.6796C17.6402 22.6929 17.7338 22.8488 17.8451 23.027C18.0455 23.3343 18.05 23.3521 17.9743 23.4323C17.8986 23.5169 17.9297 23.5703 18.8695 25.0178C19.7513 26.3807 19.8582 26.5232 20.023 26.5989C20.121 26.6435 20.2591 26.6836 20.3259 26.6836C20.7668 26.688 21.1098 26.2159 20.9672 25.8017C20.8826 25.5567 19.061 22.7553 19.0031 22.782C18.9764 22.7909 18.9229 22.8132 18.8873 22.8266C18.8428 22.8444 18.767 22.7642 18.6423 22.5593C18.5444 22.399 18.4419 22.252 18.4196 22.2297C18.3929 22.2075 18.2281 22.2832 18.0099 22.4213Z" fill="#BB7154"/>
<path d="M11.8948 24.1583C11.8948 26.1313 11.8948 26.1135 12.2422 26.4253C12.643 26.786 13.1953 26.7682 13.5872 26.3718C13.7075 26.2516 13.8099 26.1001 13.8455 25.9888C13.8812 25.8641 13.899 25.4009 13.899 24.519V23.2274L13.5783 23.1473C13.1418 23.0359 12.5539 22.7999 12.1932 22.5861L11.8948 22.4124V24.1583Z" fill="#BB7154"/>
</svg>
