<svg width="43" height="43" viewBox="0 0 43 43" fill="none" xmlns="http://www.w3.org/2000/svg">
<path d="M21.5 39.4168C19.0215 39.4168 16.6924 38.9465 14.5125 38.0059C12.3326 37.0653 10.4365 35.7887 8.82397 34.1762C7.21147 32.5637 5.93491 30.6675 4.99428 28.4877C4.05366 26.3078 3.58334 23.9786 3.58334 21.5002C3.58334 19.0217 4.05366 16.6925 4.99428 14.5127C5.93491 12.3328 7.21147 10.4366 8.82397 8.82412C10.4365 7.21162 12.3326 5.93506 14.5125 4.99443C16.6924 4.05381 19.0215 3.5835 21.5 3.5835C23.9785 3.5835 26.3076 4.05381 28.4875 4.99443C30.6674 5.93506 32.5636 7.21162 34.1761 8.82412C35.7886 10.4366 37.0651 12.3328 38.0057 14.5127C38.9464 16.6925 39.4167 19.0217 39.4167 21.5002C39.4167 22.3064 39.3719 23.0977 39.2823 23.8741C39.1927 24.6505 39.0434 25.412 38.8344 26.1585C38.4163 25.6807 37.9311 25.2776 37.3787 24.9491C36.8262 24.6206 36.2215 24.3967 35.5646 24.2772C35.6542 23.8293 35.7214 23.3739 35.7662 22.9111C35.8109 22.4483 35.8333 21.9779 35.8333 21.5002C35.8333 17.4988 34.4448 14.1095 31.6677 11.3325C28.8906 8.55537 25.5014 7.16683 21.5 7.16683C17.4986 7.16683 14.1094 8.55537 11.3323 11.3325C8.55522 14.1095 7.16668 17.4988 7.16668 21.5002C7.16668 25.5016 8.55522 28.8908 11.3323 31.6679C14.1094 34.445 17.4986 35.8335 21.5 35.8335C23.0229 35.8335 24.4787 35.6095 25.8672 35.1616C27.2557 34.7137 28.5323 34.0866 29.6969 33.2804C30.0552 33.788 30.4957 34.2359 31.0182 34.6241C31.5408 35.0123 32.1007 35.3109 32.6979 35.52C31.175 36.7443 29.4655 37.6998 27.5693 38.3866C25.6731 39.0734 23.65 39.4168 21.5 39.4168ZM34.4896 32.2502C33.8625 32.2502 33.3325 32.0337 32.8995 31.6007C32.4665 31.1677 32.25 30.6377 32.25 30.0106C32.25 29.3835 32.4665 28.8535 32.8995 28.4205C33.3325 27.9875 33.8625 27.771 34.4896 27.771C35.1167 27.771 35.6467 27.9875 36.0797 28.4205C36.5127 28.8535 36.7292 29.3835 36.7292 30.0106C36.7292 30.6377 36.5127 31.1677 36.0797 31.6007C35.6467 32.0337 35.1167 32.2502 34.4896 32.2502ZM27.4125 29.921L19.7083 22.2168V12.5418H23.2917V20.7835L29.9208 27.4127L27.4125 29.921Z" fill="#FEFAE0"/>
</svg>
