<svg width="43" height="43" viewBox="0 0 43 43" fill="none" xmlns="http://www.w3.org/2000/svg">
<path d="M22.0375 22.0377C23.0352 22.0377 23.8894 21.6798 24.5999 20.964C25.3104 20.2483 25.6656 19.3878 25.6656 18.3827C25.6656 17.3776 25.3104 16.5171 24.5999 15.8014C23.8894 15.0856 23.0352 14.7277 22.0375 14.7277C21.0398 14.7277 20.1856 15.0856 19.4751 15.8014C18.7646 16.5171 18.4094 17.3776 18.4094 18.3827C18.4094 19.3878 18.7646 20.2483 19.4751 20.964C20.1856 21.6798 21.0398 22.0377 22.0375 22.0377ZM22.0375 35.4698C25.7261 32.0585 28.4623 28.9594 30.2461 26.1724C32.03 23.3855 32.9219 20.9107 32.9219 18.7482C32.9219 15.4282 31.8712 12.7098 29.7699 10.593C27.6686 8.47612 25.0912 7.4177 22.0375 7.4177C18.9838 7.4177 16.4063 8.47612 14.3051 10.593C12.2038 12.7098 11.1531 15.4282 11.1531 18.7482C11.1531 20.9107 12.045 23.3855 13.8289 26.1724C15.6127 28.9594 18.3489 32.0585 22.0375 35.4698ZM22.0375 40.3127C17.1698 36.1399 13.5341 32.2641 11.1304 28.6852C8.72681 25.1064 7.52499 21.794 7.52499 18.7482C7.52499 14.1794 8.9838 10.5397 11.9014 7.82888C14.819 5.11809 18.1977 3.7627 22.0375 3.7627C25.8773 3.7627 29.256 5.11809 32.1736 7.82888C35.0912 10.5397 36.55 14.1794 36.55 18.7482C36.55 21.794 35.3482 25.1064 32.9445 28.6852C30.5409 32.2641 26.9052 36.1399 22.0375 40.3127Z" fill="#FEFAE0"/>
</svg>
