<svg width="27" height="27" viewBox="0 0 27 27" fill="none" xmlns="http://www.w3.org/2000/svg">
<path d="M13.0051 8.10969C13.6637 8.11025 14.2956 7.84918 14.7618 7.38391C15.2279 6.91863 15.4901 6.28726 15.4908 5.62864C15.4905 5.30255 15.426 4.97972 15.3009 4.67857C15.1759 4.37743 14.9927 4.10388 14.7618 3.87355C14.531 3.64323 14.257 3.46064 13.9556 3.33622C13.6542 3.21181 13.3312 3.148 13.0051 3.14844C11.6319 3.14844 10.519 4.25881 10.519 5.62864C10.52 6.28723 10.7824 6.91847 11.2486 7.38369C11.7148 7.8489 12.3465 8.11003 13.0051 8.10969ZM20.5791 24.8822H0.761895C0.203754 24.8822 0.261129 25.3209 0.261129 25.3209V26.0512C0.261129 26.0512 0.210504 27 1.18504 27H25.9985C26.9793 27 26.9262 26.0731 26.9262 26.0731V24.0507C26.9262 24.0507 26.8431 23.4111 26.0908 23.4111H23.6727C22.8437 23.4111 22.1585 24.8818 20.5795 24.8818L20.5791 24.8822ZM22.5062 20.401C22.5062 21.6337 23.5094 22.6348 24.7455 22.6348C25.9816 22.6348 26.9869 21.6333 26.9869 20.401C26.9869 19.1637 25.9812 18.1663 24.7455 18.1663C24.4517 18.1659 24.1607 18.2234 23.8891 18.3355C23.6175 18.4475 23.3707 18.6121 23.1627 18.8196C22.9547 19.0271 22.7897 19.2736 22.6771 19.545C22.5644 19.8163 22.5063 20.1072 22.5062 20.401ZM15.1862 16.1388C15.1118 16.3661 14.987 16.5736 14.8213 16.746C14.6556 16.9183 14.4531 17.0511 14.229 17.1344L12.2348 17.874L12.9705 18.6043H16.3371L16.335 13.451L15.2082 16.1076C15.2027 16.1203 15.1925 16.1274 15.1858 16.1388H15.1862Z" fill="#BB7154"/>
<path d="M20.0213 19.8287H13.0604L11.3822 18.1901L10.214 18.6204C9.34747 18.9305 8.29236 18.4571 7.9671 17.5961C7.77557 17.0616 7.80215 16.4646 8.12193 16.0297C7.97891 16.0233 3.90022 16.0297 3.90022 16.0297C3.73919 16.0292 3.57964 16.0604 3.43068 16.1216C3.28172 16.1828 3.14627 16.2727 3.03207 16.3862C2.91787 16.4997 2.82716 16.6347 2.76511 16.7833C2.70306 16.9319 2.6709 17.0912 2.67046 17.2523C2.67046 17.9302 3.22185 18.4601 3.90022 18.4601H8.05274L9.69932 20.9529L1.19811 21.636C0.903884 21.7032 0.644728 21.8764 0.470172 22.1226C0.295617 22.3688 0.217905 22.6707 0.251887 22.9706C0.285868 23.2705 0.429161 23.5473 0.654381 23.7482C0.8796 23.9491 1.17095 24.06 1.47276 24.0596L11.0109 24.0609C10.8386 23.7855 10.7467 23.4674 10.7456 23.1425C10.7459 22.6757 10.9315 22.2281 11.2616 21.898C11.5917 21.5679 12.0392 21.3823 12.5061 21.382H16.3223L19.4151 20.7361L19.5868 21.5575L16.4088 22.2211H12.5056C12.2617 22.2186 12.0267 22.3132 11.8524 22.484C11.6782 22.6547 11.5789 22.8878 11.5765 23.1317C11.574 23.3757 11.6685 23.6107 11.8393 23.7849C12.0101 23.9592 12.2431 24.0584 12.4871 24.0609L20.0378 24.0617C20.5971 24.0593 21.1327 23.8354 21.5274 23.4391C21.922 23.0427 22.1437 22.5062 22.1438 21.9469C22.1437 21.6684 22.0888 21.3926 21.982 21.1353C21.8753 20.878 21.7189 20.6443 21.5218 20.4476C21.3247 20.2508 21.0907 20.0948 20.8332 19.9885C20.5757 19.8823 20.2999 19.8282 20.0213 19.8287Z" fill="#BB7154"/>
<path d="M10.0668 17.8515C9.83049 17.9547 9.56292 17.96 9.32269 17.8663C9.08247 17.7726 8.88917 17.5875 8.78514 17.3516C8.73354 17.2345 8.70557 17.1085 8.70283 16.9806C8.70008 16.8527 8.72262 16.7255 8.76915 16.6063C8.81567 16.4872 8.88527 16.3784 8.97395 16.2862C9.06263 16.194 9.16864 16.1202 9.2859 16.0691L12.8301 14.7385L13.9253 12.1263L13.2115 11.8626L12.2804 14.0994L9.58248 15.0929V12.3583L6.94534 15.2384L3.961 15.2355C3.961 15.2355 9.18339 9.51063 9.34665 9.33935C9.56308 9.12462 10.0579 8.76855 10.9911 8.76855H14.3446C16.2498 8.76855 16.6164 10.6678 16.2266 11.6508L14.4729 15.9041C14.4196 16.0263 14.3421 16.1365 14.2451 16.2279C14.148 16.3193 14.0335 16.3902 13.9084 16.4361L10.0668 17.8507V17.8515Z" fill="#BB7154"/>
</svg>
