<svg width="20" height="16" viewBox="0 0 20 16" fill="none" xmlns="http://www.w3.org/2000/svg">
<path d="M18.8333 16C16.5185 16 14.2315 15.5963 11.9722 14.7889C9.71296 13.9815 7.65741 12.837 5.80556 11.3556C3.9537 9.87407 2.52315 8.22963 1.51389 6.42222C0.50463 4.61481 0 2.78519 0 0.933333C0 0.666667 0.111111 0.444444 0.333333 0.266667C0.555556 0.0888889 0.833333 0 1.16667 0H5.66667C5.92593 0 6.15741 0.0703704 6.36111 0.211111C6.56482 0.351852 6.68519 0.518519 6.72222 0.711111L7.44444 3.82222C7.48148 4.05926 7.47222 4.25926 7.41667 4.42222C7.36111 4.58519 7.25926 4.72593 7.11111 4.84444L4.41667 7.02222C4.78704 7.57037 5.22685 8.1 5.73611 8.61111C6.24537 9.12222 6.80556 9.61481 7.41667 10.0889C7.99074 10.5481 8.59259 10.9741 9.22222 11.3667C9.85185 11.7593 10.5185 12.1185 11.2222 12.4444L13.8333 10.3556C14 10.2222 14.2176 10.1222 14.4861 10.0556C14.7546 9.98889 15.0185 9.97037 15.2778 10L19.1111 10.6222C19.3704 10.6815 19.5833 10.7889 19.75 10.9444C19.9167 11.1 20 11.2741 20 11.4667V15.0667C20 15.3333 19.8889 15.5556 19.6667 15.7333C19.4444 15.9111 19.1667 16 18.8333 16ZM3.36111 5.33333L5.19444 3.86667L4.72222 1.77778H2.25C2.34259 2.38519 2.47222 2.98519 2.63889 3.57778C2.80556 4.17037 3.0463 4.75556 3.36111 5.33333ZM13.3056 13.2889C14.0278 13.5407 14.7639 13.7407 15.5139 13.8889C16.2639 14.037 17.0185 14.1333 17.7778 14.1778V12.2222L15.1667 11.8L13.3056 13.2889Z" fill="#FEFAE0"/>
</svg>
