<?xml version="1.0" standalone="no"?>
<!DOCTYPE svg PUBLIC "-//W3C//DTD SVG 20010904//EN"
 "http://www.w3.org/TR/2001/REC-SVG-20010904/DTD/svg10.dtd">
<svg version="1.0" xmlns="http://www.w3.org/2000/svg"
 width="512.000000pt" height="512.000000pt" viewBox="0 0 512.000000 512.000000"
 preserveAspectRatio="xMidYMid meet">

<g transform="translate(0.000000,512.000000) scale(0.100000,-0.100000)"
fill="#000000" stroke="none">
<path d="M2205 5025 c-78 -36 -105 -85 -105 -187 l0 -78 -277 0 c-342 -1 -370
-8 -414 -105 -17 -37 -19 -80 -19 -672 0 -422 4 -641 11 -660 14 -38 57 -83
96 -99 26 -11 126 -14 508 -14 l475 0 0 -555 0 -555 -115 0 -114 0 -3 431 -3
431 -28 24 c-34 29 -56 30 -91 3 l-26 -20 0 -435 0 -434 -365 0 c-245 0 -372
-4 -388 -11 -24 -11 -47 -47 -47 -73 0 -7 9 -25 21 -40 l20 -26 1777 0 c1401
0 1782 -3 1802 -13 55 -28 64 -94 18 -137 -22 -20 -25 -20 -2378 -20 -2353 0
-2356 0 -2378 20 -46 43 -37 109 18 137 19 10 128 13 441 13 l416 0 21 23 c27
29 28 67 3 98 l-19 24 -376 3 -376 3 0 364 0 365 182 0 c217 0 249 10 296 88
l27 47 3 258 3 257 45 0 c56 0 82 13 95 47 21 57 -24 103 -101 103 l-39 0 -11
57 c-15 69 -64 125 -125 142 -22 6 -115 11 -207 11 l-168 0 0 235 c0 252 -4
278 -50 293 -32 11 -84 -7 -94 -33 -3 -9 -6 -520 -6 -1135 l0 -1118 -30 -12
c-44 -18 -105 -92 -120 -145 -27 -98 16 -205 104 -260 48 -29 52 -30 203 -33
l153 -3 0 -218 c0 -212 1 -218 25 -268 28 -56 77 -95 140 -112 23 -6 137 -11
268 -11 l227 0 0 -353 c0 -392 3 -411 64 -484 19 -21 58 -52 87 -68 l54 -30
1225 0 1225 0 47 22 c63 29 123 93 148 159 19 51 20 77 20 404 l0 349 248 3
c233 3 249 4 289 25 51 27 96 82 112 132 7 23 11 119 11 245 l0 206 138 0
c123 0 142 3 188 24 177 82 176 324 -1 419 l-40 22 -957 3 -958 2 0 470 0 470
280 0 c261 0 284 1 320 20 47 24 84 71 99 125 16 59 14 1408 -3 1453 -18 50
-70 98 -121 111 -27 7 -148 11 -308 11 l-265 0 -3 83 c-4 74 -7 88 -33 121
-55 73 -69 76 -436 75 -258 0 -331 -3 -355 -14z m673 -202 l3 -63 -316 0 -315
0 0 58 c0 32 3 62 7 65 4 4 144 6 312 5 l306 -3 3 -62z m700 -225 c16 -16 17
-1359 2 -1389 -8 -15 -21 -19 -59 -19 l-49 0 -4 57 c-4 43 -10 61 -28 75 -29
24 -61 23 -94 -3 -22 -18 -26 -28 -26 -75 l0 -54 -162 0 -163 0 -78 82 -79 83
-646 5 -647 5 -3 614 c-2 485 0 616 10 623 7 4 463 8 1014 8 765 0 1003 -3
1012 -12z m-2924 -924 c14 -13 16 -58 16 -335 0 -202 -4 -327 -10 -340 -10
-18 -23 -19 -180 -19 l-170 0 0 355 0 355 164 0 c136 0 167 -3 180 -16z m2170
-525 l56 -61 0 -494 0 -494 -120 0 -120 0 0 555 0 555 64 0 63 0 57 -61z
m-1696 -1746 l-3 -228 -226 -3 c-216 -2 -227 -1 -252 19 l-27 20 0 210 0 209
255 0 255 0 -2 -227z m632 135 c5 -78 9 -91 36 -125 17 -21 48 -48 70 -60 l39
-23 655 0 656 0 44 23 c26 13 57 40 75 65 26 39 30 54 34 128 l3 84 239 0 239
0 0 -649 0 -648 -23 -34 c-49 -74 44 -69 -1265 -69 -1301 0 -1222 -4 -1263 64
-18 30 -19 63 -19 684 l0 652 238 -2 237 -3 5 -87z m1460 33 c0 -41 -5 -65
-16 -75 -14 -14 -86 -16 -643 -16 -474 0 -630 3 -639 12 -7 7 -12 39 -12 75
l0 63 655 0 655 0 0 -59z m1290 -146 c0 -205 0 -206 -25 -230 l-24 -25 -231 0
-230 0 0 230 0 230 255 0 255 0 0 -205z"/>
<path d="M1705 4479 c-46 -26 -45 -20 -45 -495 0 -441 0 -452 21 -478 l20 -26
859 0 c830 0 859 1 881 19 l24 19 3 455 3 455 -25 29 -24 28 -849 2 c-603 2
-854 -1 -868 -8z m1613 -496 l2 -353 -755 0 -755 0 0 355 0 355 753 -2 752 -3
3 -352z"/>
</g>
</svg>
