<svg width="164" height="386" viewBox="0 0 164 386" fill="none" xmlns="http://www.w3.org/2000/svg">
<path d="M141.616 108.372C148.205 42.7852 151.616 10.8717 160.116 12.3718C167.116 12.3719 163.856 50.0532 153.116 108.872L150.616 111.872L109.116 379.872L107.616 367.372L144.116 111.372L141.616 108.372Z" fill="#BB7154"/>
<circle cx="98.6158" cy="345.372" r="7.5" fill="#BB7154"/>
<circle cx="96.1158" cy="316.872" r="10" fill="#BB7154"/>
<circle cx="100.116" cy="285.849" r="12" fill="#BB7154"/>
<rect x="93.9473" y="158.103" width="30.3357" height="29.3877" rx="12" transform="rotate(-10 93.9473 158.103)" fill="#BB7154"/>
<rect x="82.177" y="120.169" width="32.0848" height="28.0932" rx="12" transform="rotate(-10 82.177 120.169)" fill="#BB7154"/>
<rect x="68.5358" y="84.6152" width="32.7429" height="29.7626" rx="12" transform="rotate(-18.9754 68.5358 84.6152)" fill="#BB7154"/>
<rect x="61.0896" y="41.2749" width="32.7429" height="31.7197" rx="12" transform="rotate(-7.90773 61.0896 41.2749)" fill="#BB7154"/>
<rect x="94.8474" y="202.189" width="27.4929" height="26.6337" rx="12" transform="rotate(-10 94.8474 202.189)" fill="#BB7154"/>
<rect x="91.1868" y="241.293" width="25.9959" height="25.1836" rx="12" transform="rotate(-10 91.1868 241.293)" fill="#BB7154"/>
<path d="M98.3995 24.5966C92.6414 41.1336 58.9455 28.9002 65.6743 13.6278C72.4031 -1.64467 104.158 8.05967 98.3995 24.5966Z" fill="#BB7154"/>
<path d="M3.61612 135.872C3.61612 135.872 5.11612 130.097 15.1161 121.372C42.504 104.768 57.7615 95.5032 59.1158 90.8718C129.116 245.872 45.9173 265.095 91.6158 381.372C79.9828 385.218 71.956 386.072 55.1158 385.372C39.9561 384.796 32.2665 382.881 19.6158 377.372C18.6158 366.038 20.5158 335.672 36.1158 304.872C51.7158 274.072 39.2825 222.705 31.1158 200.872C23.1158 211.372 41.1158 238.372 34.1161 290.372C-2.88416 272.872 -3.66437 174.257 3.61612 135.872Z" fill="#BB7154"/>
</svg>
